# Blender 4.2.1 LTS
# www.blender.org
mtllib nave.mtl
o Cube
v 1.012759 1.558542 -1.544034
v 1.012759 0.005050 -1.300440
v 0.987241 1.558542 1.471815
v 0.987241 0.005050 1.790669
v 1.012759 -0.403873 -1.296935
v 0.987241 -0.403873 1.583827
v 2.143740 0.969184 -1.533888
v 2.143740 -0.352727 -1.290294
v 2.118222 0.969184 1.272956
v 2.118222 -0.352727 1.591810
v 3.251864 0.971299 -1.523947
v 3.251864 -0.350612 -1.280353
v 3.226346 0.971299 1.282897
v 3.226346 -0.350612 1.601751
v 3.887487 0.672619 -0.900552
v 3.887487 -0.006049 -0.824083
v 3.861969 0.672619 1.096722
v 3.861969 -0.006049 1.242385
v 2.503448 1.171883 -1.220420
v 2.418964 1.171883 0.853888
v 2.826283 1.173998 -1.210478
v 2.911826 1.173998 0.863829
v 2.422448 2.039921 -1.332949
v 2.550347 2.039921 -0.096438
v 2.787744 2.042036 -1.323008
v 2.824552 2.042036 -0.086497
v 5.443736 0.476381 -1.547029
v 5.443736 0.094034 -1.470560
v 5.418217 0.476381 0.482387
v 5.418217 0.094034 0.628050
v -1.012759 1.558542 -1.544034
v -1.012759 0.005050 -1.300440
v -0.987241 1.558542 1.462980
v -0.987241 0.005050 1.781834
v -1.012759 -0.403873 -1.296935
v -0.987241 -0.403873 1.583827
v -2.143740 0.969184 -1.533888
v -2.143740 -0.352727 -1.290294
v -2.118222 0.969184 1.272956
v -2.118222 -0.352727 1.591810
v -3.251864 0.971299 -1.523947
v -3.251864 -0.350612 -1.280353
v -3.226346 0.971299 1.282897
v -3.226346 -0.350612 1.601751
v -3.887487 0.672619 -0.900552
v -3.887487 -0.006049 -0.824083
v -3.861969 0.672619 1.096722
v -3.861969 -0.006049 1.242385
v -2.503448 1.171883 -1.220420
v -2.418964 1.171883 0.853888
v -2.826283 1.173998 -1.210478
v -2.911826 1.173998 0.863829
v -2.422448 2.039921 -1.332949
v -2.550347 2.039921 -0.096438
v -2.787744 2.042036 -1.323008
v -2.824552 2.042036 -0.086497
v -5.443736 0.476381 -1.547029
v -5.443736 0.094034 -1.470560
v -5.418217 0.476381 0.482387
v -5.418217 0.094034 0.628050
v -0.987241 0.068243 2.834722
v 0.855497 1.194819 2.511944
v -0.830834 1.194819 2.511944
v 0.987241 0.067872 2.835717
v 0.898370 -0.341051 2.837880
v -0.909119 -0.341051 2.837880
vn -0.0000 0.0086 1.0000
vn -0.0000 1.0000 -0.0000
vn 0.2670 0.1938 0.9440
vn 1.0000 0.0001 0.0089
vn -0.4779 0.8782 -0.0195
vn -0.0484 -0.1810 -0.9823
vn -0.3020 -0.9533 -0.0025
vn 0.4621 0.8868 0.0042
vn 0.4791 -0.8777 0.0059
vn 0.0092 -0.1812 -0.9834
vn 0.0019 -1.0000 -0.0000
vn -0.0092 0.2345 0.9721
vn 0.3823 0.3290 0.8635
vn 0.3593 0.1958 0.9124
vn 0.4222 0.9065 0.0038
vn 0.6121 -0.0885 -0.7858
vn -0.0167 0.7394 0.6731
vn 0.0032 0.8417 -0.5399
vn -0.0125 0.9036 0.4281
vn 0.5371 0.8435 0.0049
vn -0.0058 1.0000 0.0006
vn -0.9916 -0.0792 0.1026
vn 0.0314 -0.1271 -0.9914
vn 0.9976 0.0553 -0.0411
vn 0.9999 0.0046 0.0122
vn 0.1258 0.9921 0.0016
vn -0.3759 -0.1038 -0.9209
vn 0.0645 -0.9979 0.0008
vn 0.9934 0.1142 -0.0069
vn -0.0000 0.9987 -0.0500
vn -0.2601 0.1941 0.9459
vn -1.0000 -0.0040 0.0083
vn 0.5638 0.8259 -0.0051
vn 0.0717 -0.1545 -0.9854
vn 0.3020 -0.9533 -0.0025
vn -0.4626 0.8865 0.0039
vn -0.4742 -0.8804 0.0042
vn -0.0092 -0.1812 -0.9834
vn -0.0019 -1.0000 -0.0000
vn 0.0092 0.2345 0.9721
vn -0.3490 0.1967 0.9162
vn -0.3892 0.2160 0.8955
vn -0.4222 0.9065 0.0038
vn -0.6604 -0.1361 -0.7385
vn 0.0167 0.7394 0.6731
vn -0.0032 0.8417 -0.5399
vn 0.0057 0.8985 0.4389
vn -0.5371 0.8435 0.0049
vn 0.0058 1.0000 0.0006
vn 0.9935 0.1061 -0.0405
vn -0.0314 -0.1271 -0.9914
vn -0.9976 0.0553 -0.0411
vn -0.9999 0.0025 0.0126
vn -0.1257 0.9921 0.0016
vn 0.3759 -0.1038 -0.9209
vn -0.0645 -0.9979 0.0008
vn -0.0000 -0.1549 -0.9879
vn -0.9975 -0.0308 0.0637
vn 0.0015 -0.9447 -0.3278
vn -0.0000 -0.0077 -1.0000
vn -0.9771 0.2123 -0.0128
vn -0.9868 0.0325 0.1584
vn -0.0004 0.2755 0.9613
vn 0.2381 0.2277 0.9442
vn 1.0000 -0.0042 0.0083
vn -0.5638 0.8259 -0.0051
vn -0.0717 -0.1545 -0.9854
vn -0.3016 -0.9534 -0.0027
vn 0.4627 0.8865 0.0039
vn 0.4742 -0.8804 0.0042
vn 0.3490 0.1967 0.9162
vn 0.3892 0.2160 0.8955
vn 0.4266 0.9044 0.0055
vn 0.6604 -0.1361 -0.7385
vn -0.0302 0.7366 0.6756
vn 0.0115 0.8336 -0.5523
vn -0.0057 0.8985 0.4389
vn 0.4195 0.9076 -0.0173
vn -0.0077 1.0000 0.0002
vn -0.9935 0.1061 -0.0405
vn 0.0277 -0.1260 -0.9916
vn 0.9987 0.0405 -0.0297
vn 0.9999 0.0025 0.0126
vn 0.1257 0.9921 0.0016
vn -0.3966 -0.1800 -0.9002
vn 0.9904 0.0277 0.1352
vn -0.2311 0.2281 0.9458
vn -1.0000 0.0001 0.0089
vn 0.4779 0.8782 -0.0195
vn 0.0484 -0.1810 -0.9823
vn 0.3016 -0.9534 -0.0027
vn -0.4621 0.8868 0.0042
vn -0.4791 -0.8777 0.0059
vn -0.3823 0.3290 0.8635
vn -0.3593 0.1958 0.9124
vn -0.4266 0.9044 0.0055
vn -0.6121 -0.0885 -0.7858
vn 0.0302 0.7366 0.6756
vn -0.0115 0.8336 -0.5523
vn 0.0125 0.9036 0.4281
vn -0.4195 0.9076 -0.0173
vn 0.0077 1.0000 0.0002
vn 0.9916 -0.0792 0.1026
vn -0.0277 -0.1260 -0.9916
vn -0.9987 0.0405 -0.0297
vn -0.9999 0.0046 0.0122
vn -0.1258 0.9921 0.0016
vn 0.3966 -0.1800 -0.9002
vn -0.9822 -0.1874 0.0112
vn -0.0000 -0.9439 -0.3301
vn 0.0005 -0.0054 -1.0000
vn -0.9967 0.0367 -0.0725
vn -0.9908 0.1352 -0.0081
vn -0.0000 0.2761 0.9611
vt 0.000000 0.000000
vt 0.375000 0.750000
vt 0.625000 0.750000
vt 0.375000 0.500000
vt 0.625000 0.500000
s 0
usemtl Material
f 5/1/1 32/1/1 35/1/1
f 1/1/2 33/1/2 3/1/2
f 4/2/3 9/3/3 3/3/3
f 2/4/4 6/2/4 5/4/4
f 7/5/5 20/3/5 19/5/5
f 2/4/6 7/5/6 8/4/6
f 2/4/7 10/2/7 4/2/7
f 1/5/8 9/3/8 7/5/8
f 14/2/9 16/4/9 18/2/9
f 7/5/10 12/4/10 8/4/10
f 10/2/11 12/4/11 14/2/11
f 10/2/12 13/3/12 9/3/12
f 17/3/13 30/2/13 29/3/13
f 13/3/14 18/2/14 17/3/14
f 13/3/15 15/5/15 11/5/15
f 12/4/16 15/5/16 16/4/16
f 22/3/17 24/3/17 20/3/17
f 7/5/18 21/5/18 11/5/18
f 9/3/19 22/3/19 20/3/19
f 11/5/20 22/3/20 13/3/20
f 24/3/21 25/5/21 23/5/21
f 19/5/22 24/3/22 23/5/22
f 19/5/23 25/5/23 21/5/23
f 21/5/24 26/3/24 22/3/24
f 28/4/25 29/3/25 30/2/25
f 15/5/26 29/3/26 27/5/26
f 15/5/27 28/4/27 16/4/27
f 16/4/28 30/2/28 18/2/28
f 4/2/29 62/1/29 64/2/29
f 36/1/30 65/1/30 6/1/30
f 39/3/31 34/2/31 33/3/31
f 32/4/32 36/2/32 34/2/32
f 6/1/2 35/1/2 36/1/2
f 37/5/33 50/3/33 39/3/33
f 32/4/34 37/5/34 31/5/34
f 40/2/35 32/4/35 34/2/35
f 31/5/36 39/3/36 33/3/36
f 44/2/37 46/4/37 42/4/37
f 42/4/38 37/5/38 38/4/38
f 40/2/39 42/4/39 38/4/39
f 43/3/40 40/2/40 39/3/40
f 47/3/41 60/2/41 48/2/41
f 43/3/42 48/2/42 44/2/42
f 45/5/43 43/3/43 41/5/43
f 42/4/44 45/5/44 41/5/44
f 54/3/45 52/3/45 50/3/45
f 51/5/46 37/5/46 41/5/46
f 39/3/47 52/3/47 43/3/47
f 52/3/48 41/5/48 43/3/48
f 55/5/49 54/3/49 53/5/49
f 49/5/50 54/3/50 50/3/50
f 55/5/51 49/5/51 51/5/51
f 56/3/52 51/5/52 52/3/52
f 58/4/53 59/3/53 57/5/53
f 45/5/54 59/3/54 47/3/54
f 58/4/55 45/5/55 46/4/55
f 60/2/56 46/4/56 48/2/56
f 1/1/57 32/1/57 31/1/57
f 66/1/58 34/2/58 36/1/58
f 3/1/59 63/1/59 33/1/59
f 61/1/60 65/1/60 66/1/60
f 4/2/61 65/2/61 64/2/61
f 34/2/62 63/1/62 33/1/62
f 64/1/63 63/1/63 61/1/63
f 5/1/1 2/1/1 32/1/1
f 1/1/2 31/5/2 33/1/2
f 4/2/64 10/2/64 9/3/64
f 2/4/65 4/2/65 6/2/65
f 7/5/66 9/3/66 20/3/66
f 2/4/67 1/5/67 7/5/67
f 2/4/68 8/4/68 10/2/68
f 1/5/69 3/3/69 9/3/69
f 14/2/70 12/4/70 16/4/70
f 7/5/10 11/5/10 12/4/10
f 10/2/11 8/4/11 12/4/11
f 10/2/12 14/2/12 13/3/12
f 17/3/71 18/2/71 30/2/71
f 13/3/72 14/2/72 18/2/72
f 13/3/73 17/3/73 15/5/73
f 12/4/74 11/5/74 15/5/74
f 22/3/75 26/3/75 24/3/75
f 7/5/76 19/5/76 21/5/76
f 9/3/77 13/3/77 22/3/77
f 11/5/78 21/5/78 22/3/78
f 24/3/79 26/3/79 25/5/79
f 19/5/80 20/3/80 24/3/80
f 19/5/81 23/5/81 25/5/81
f 21/5/82 25/5/82 26/3/82
f 28/4/83 27/5/83 29/3/83
f 15/5/84 17/3/84 29/3/84
f 15/5/85 27/5/85 28/4/85
f 16/4/28 28/4/28 30/2/28
f 4/2/86 3/1/86 62/1/86
f 36/1/30 66/1/30 65/1/30
f 39/3/87 40/2/87 34/2/87
f 32/4/88 35/4/88 36/2/88
f 6/1/2 5/1/2 35/1/2
f 37/5/89 49/5/89 50/3/89
f 32/4/90 38/4/90 37/5/90
f 40/2/91 38/4/91 32/4/91
f 31/5/92 37/5/92 39/3/92
f 44/2/93 48/2/93 46/4/93
f 42/4/38 41/5/38 37/5/38
f 40/2/39 44/2/39 42/4/39
f 43/3/40 44/2/40 40/2/40
f 47/3/94 59/3/94 60/2/94
f 43/3/95 47/3/95 48/2/95
f 45/5/96 47/3/96 43/3/96
f 42/4/97 46/4/97 45/5/97
f 54/3/98 56/3/98 52/3/98
f 51/5/99 49/5/99 37/5/99
f 39/3/100 50/3/100 52/3/100
f 52/3/101 51/5/101 41/5/101
f 55/5/102 56/3/102 54/3/102
f 49/5/103 53/5/103 54/3/103
f 55/5/104 53/5/104 49/5/104
f 56/3/105 55/5/105 51/5/105
f 58/4/106 60/2/106 59/3/106
f 45/5/107 57/5/107 59/3/107
f 58/4/108 57/5/108 45/5/108
f 60/2/56 58/4/56 46/4/56
f 1/1/57 2/1/57 32/1/57
f 66/1/109 61/1/109 34/2/109
f 3/1/110 62/1/110 63/1/110
f 61/1/111 64/1/111 65/1/111
f 4/2/112 6/2/112 65/2/112
f 34/2/113 61/1/113 63/1/113
f 64/1/114 62/1/114 63/1/114
l 4 34
